<?xml version="1.0" encoding="utf-8"?>
<!-- Generator: Adobe Illustrator 24.3.0, SVG Export Plug-In . SVG Version: 6.00 Build 0)  -->
<svg version="1.1" id="Layer_1" xmlns="http://www.w3.org/2000/svg" xmlns:xlink="http://www.w3.org/1999/xlink" x="0px" y="0px"
	 viewBox="0 0 124 103" style="enable-background:new 0 0 124 103;" xml:space="preserve">
<style type="text/css">
	.st0{fill-rule:evenodd;clip-rule:evenodd;fill:#404198;}
	.st1{fill:#404198;}
</style>
<g>
	<g>
		<path class="st0" d="M31.6,53.6C56.9,58,51.4,30.9,63.6,24c12.2-6.8,29.7,1.5,29.7,1.5c-26.8-2.8-18.3,11.1-27,23.7
			C61,56.8,53.2,60.8,31.6,53.6L31.6,53.6z"/>
		<path class="st0" d="M11.4,20.7C55.5-12.7,116.9,8.5,119.9,32.5c2.7,21.5-20,28-42.2,15.1c24.3,9.5,34.9-2.6,28.5-16.8
			C99.8,16.6,52.5-2.3,11.4,20.7L11.4,20.7z"/>
		<path class="st0" d="M113.7,58.6C69.5,91.9,8.1,70.8,5,46.8c-2.7-21.5,20-28.1,42.3-15c-24.3-9.6-35,2.6-28.6,16.8
			C25.3,62.7,72.4,81.5,113.7,58.6L113.7,58.6z"/>
	</g>
	<g>
		<path class="st1" d="M12.8,88.6L11.2,90c-0.7-0.9-1.3-1.3-1.8-1.3c-0.3,0-0.5,0.1-0.7,0.3c-0.2,0.2-0.3,0.4-0.3,0.6
			c0,0.2,0.1,0.5,0.3,0.7c0.2,0.3,0.7,0.9,1.5,1.8c0.5,0.5,0.8,0.8,0.9,1c0.3,0.5,0.6,0.9,0.7,1.3c0.2,0.4,0.2,0.8,0.2,1.2
			c0,0.9-0.3,1.7-1,2.4c-0.7,0.6-1.5,1-2.6,1c-1.6,0-2.9-0.8-3.9-2.3l1.7-1.4c0.7,1,1.4,1.6,2.2,1.6c0.4,0,0.7-0.1,1-0.4
			c0.3-0.2,0.4-0.5,0.4-0.9c0-0.3-0.1-0.5-0.2-0.8C9.4,94.5,9,94,8.2,93.2c-0.8-0.8-1.3-1.4-1.5-1.9c-0.3-0.6-0.5-1.1-0.5-1.7
			c0-0.7,0.2-1.4,0.7-1.9c0.6-0.7,1.4-1.1,2.4-1.1C10.7,86.6,11.9,87.3,12.8,88.6z"/>
		<path class="st1" d="M17.8,89.8c0.8,0,1.5,0.2,2.1,0.5c0.6,0.4,1.1,0.9,1.5,1.5c0.4,0.7,0.5,1.4,0.5,2.2c0,1.4-0.5,2.5-1.4,3.5
			c-1,1-2.2,1.4-3.6,1.4c-1.2,0-2.2-0.4-3-1.1c-0.7-0.7-1.1-1.7-1.1-2.9c0-1.5,0.5-2.7,1.5-3.6S16.5,89.8,17.8,89.8z M17.7,91.8
			c-0.9,0-1.5,0.3-2,0.9c-0.5,0.6-0.7,1.3-0.7,2c0,0.6,0.2,1.2,0.6,1.6s0.9,0.6,1.5,0.6c0.9,0,1.6-0.3,2.1-0.9
			c0.5-0.6,0.7-1.3,0.7-2.1c0-0.6-0.2-1.2-0.6-1.6C18.8,92,18.3,91.8,17.7,91.8z"/>
		<path class="st1" d="M23.6,90h2.1l-0.1,0.9c0.8-0.7,1.7-1.1,2.5-1.1c0.8,0,1.4,0.2,1.8,0.7c0.5,0.5,0.7,1.1,0.7,1.8
			c0,0.3,0,0.8-0.1,1.5l-0.7,4.9h-2.1l0.6-4.7c0.1-0.5,0.1-0.9,0.1-1.1c0-0.4-0.1-0.6-0.3-0.8c-0.2-0.2-0.5-0.3-0.9-0.3
			c-0.4,0-0.7,0.1-1.1,0.4c-0.4,0.2-0.6,0.6-0.8,1c-0.2,0.4-0.4,1.3-0.5,2.5l-0.4,3.1h-2.1L23.6,90z"/>
		<path class="st1" d="M39,90h2.1l-1,7c-0.2,1.4-0.4,2.3-0.6,2.7c-0.3,0.7-0.8,1.3-1.6,1.7c-0.7,0.5-1.7,0.7-2.8,0.7
			c-0.9,0-1.7-0.2-2.4-0.5c-0.7-0.4-1.2-0.8-1.5-1.4l1.9-1c0.6,0.6,1.3,0.9,2.2,0.9c0.5,0,1-0.1,1.4-0.3c0.4-0.2,0.7-0.4,0.9-0.8
			c0.2-0.3,0.4-0.8,0.4-1.4c-0.8,0.7-1.7,1-2.7,1c-0.7,0-1.3-0.2-1.9-0.5c-0.6-0.3-1.1-0.8-1.4-1.4c-0.3-0.6-0.5-1.3-0.5-2.1
			c0-0.9,0.2-1.7,0.7-2.4c0.4-0.8,1-1.4,1.8-1.8c0.8-0.4,1.6-0.7,2.4-0.7c0.5,0,1,0.1,1.4,0.3c0.4,0.2,0.8,0.5,1.2,1L39,90z
			 M36.4,91.8c-0.8,0-1.5,0.3-2,0.8c-0.5,0.5-0.8,1.2-0.8,2c0,0.6,0.2,1.2,0.6,1.5c0.4,0.4,0.9,0.6,1.6,0.6c0.5,0,1-0.1,1.4-0.4
			c0.4-0.2,0.8-0.6,1-1c0.3-0.4,0.4-0.9,0.4-1.4c0-0.6-0.2-1.1-0.6-1.5C37.6,92,37.1,91.8,36.4,91.8z"/>
		<path class="st1" d="M46.9,86.9h2.2l-0.6,4.4h4l0.6-4.4h2.2l-1.6,11.7h-2.2l0.7-5.3h-4l-0.7,5.3h-2.2L46.9,86.9z"/>
		<path class="st1" d="M63,90h2.1l-1.2,8.7h-2.1l0.1-0.9c-0.5,0.4-0.9,0.7-1.3,0.9c-0.4,0.2-0.9,0.3-1.4,0.3c-1.2,0-2.1-0.4-2.7-1.3
			c-0.7-0.8-1-1.8-1-3c0-0.9,0.2-1.7,0.7-2.4c0.4-0.8,1-1.4,1.8-1.8c0.7-0.4,1.5-0.7,2.3-0.7c0.5,0,1,0.1,1.5,0.4
			c0.5,0.2,0.8,0.6,1.1,1.1L63,90z M59.8,97c0.5,0,1-0.1,1.4-0.4c0.4-0.2,0.7-0.6,1-1.1c0.3-0.5,0.4-1,0.4-1.5
			c0-0.7-0.2-1.2-0.6-1.7c-0.4-0.4-0.9-0.6-1.6-0.6c-0.8,0-1.4,0.3-1.9,0.8c-0.5,0.6-0.8,1.3-0.8,2.2c0,0.7,0.2,1.2,0.6,1.6
			C58.6,96.8,59.1,97,59.8,97z"/>
		<path class="st1" d="M66.6,90h2.1l-0.1,0.9c0.8-0.7,1.7-1.1,2.5-1.1c0.8,0,1.4,0.2,1.8,0.7c0.5,0.5,0.7,1.1,0.7,1.8
			c0,0.3,0,0.8-0.1,1.5l-0.7,4.9h-2.1l0.6-4.7c0.1-0.5,0.1-0.9,0.1-1.1c0-0.4-0.1-0.6-0.3-0.8c-0.2-0.2-0.5-0.3-0.9-0.3
			c-0.4,0-0.7,0.1-1.1,0.4c-0.4,0.2-0.6,0.6-0.8,1c-0.2,0.4-0.4,1.3-0.5,2.5l-0.4,3.1h-2.1L66.6,90z"/>
		<path class="st1" d="M78.4,86.9h7.2L85.3,89h-2.4l-1.3,9.6h-2.2l1.3-9.6h-2.5L78.4,86.9z"/>
		<path class="st1" d="M89.3,89.8c0.8,0,1.5,0.2,2.1,0.5c0.6,0.4,1.1,0.9,1.5,1.5c0.4,0.7,0.5,1.4,0.5,2.2c0,1.4-0.5,2.5-1.4,3.5
			c-1,1-2.2,1.4-3.6,1.4c-1.2,0-2.2-0.4-3-1.1c-0.7-0.7-1.1-1.7-1.1-2.9c0-1.5,0.5-2.7,1.5-3.6C86.8,90.2,87.9,89.8,89.3,89.8z
			 M89.1,91.8c-0.9,0-1.5,0.3-2,0.9c-0.5,0.6-0.7,1.3-0.7,2c0,0.6,0.2,1.2,0.6,1.6c0.4,0.4,0.9,0.6,1.5,0.6c0.9,0,1.6-0.3,2.1-0.9
			c0.5-0.6,0.7-1.3,0.7-2.1c0-0.6-0.2-1.2-0.6-1.6C90.3,92,89.7,91.8,89.1,91.8z"/>
		<path class="st1" d="M95,90h2.1l-0.6,4.4c-0.1,0.5-0.1,0.9-0.1,1.1c0,0.4,0.1,0.7,0.4,1c0.3,0.3,0.6,0.4,1,0.4
			c0.5,0,1-0.2,1.3-0.5c0.3-0.3,0.5-1,0.7-2l0.6-4.3h2.1l-0.6,4.7c-0.1,1.1-0.4,1.9-0.7,2.4c-0.3,0.6-0.8,1-1.3,1.3
			c-0.6,0.3-1.2,0.5-2,0.5c-1.1,0-1.9-0.3-2.5-0.9c-0.6-0.6-0.9-1.4-0.9-2.4c0-0.6,0.1-1.4,0.2-2.3L95,90z"/>
		<path class="st1" d="M103.5,90h1.9l-0.2,1.2c0.6-0.9,1.3-1.4,2.1-1.4c0.2,0,0.4,0.1,0.6,0.2l-0.8,1.9c-0.2-0.1-0.3-0.1-0.4-0.1
			c-0.4,0-0.8,0.2-1.1,0.7c-0.3,0.5-0.6,1.5-0.8,2.9l-0.4,3.3h-2.1L103.5,90z"/>
		<path class="st1" d="M108.1,90h2.1l-1.2,8.7h-2.1L108.1,90z M109.6,86.4c0.4,0,0.7,0.1,0.9,0.4c0.3,0.3,0.4,0.6,0.4,0.9
			c0,0.4-0.1,0.7-0.4,0.9c-0.3,0.3-0.6,0.4-0.9,0.4c-0.4,0-0.7-0.1-0.9-0.4c-0.3-0.3-0.4-0.6-0.4-0.9c0-0.4,0.1-0.7,0.4-0.9
			C108.9,86.6,109.2,86.4,109.6,86.4z"/>
		<path class="st1" d="M116.3,91.2l-1,1.6c-0.3-0.4-0.5-0.7-0.8-0.9s-0.6-0.3-0.8-0.3c-0.2,0-0.4,0.1-0.5,0.2
			c-0.1,0.1-0.2,0.2-0.2,0.4c0,0.1,0.1,0.3,0.2,0.4c0.1,0.1,0.4,0.4,0.9,0.7c0.8,0.6,1.4,1.1,1.6,1.5c0.3,0.4,0.4,0.9,0.4,1.4
			c0,0.6-0.3,1.3-0.8,1.8c-0.5,0.6-1.3,0.9-2.3,0.9c-0.6,0-1.1-0.1-1.6-0.4c-0.5-0.2-1-0.7-1.6-1.3l1.3-1.5c0.6,0.8,1.2,1.2,2,1.2
			c0.3,0,0.5-0.1,0.7-0.2c0.2-0.1,0.3-0.3,0.3-0.5c0-0.1-0.1-0.3-0.2-0.5c-0.1-0.2-0.5-0.4-1-0.8c-0.7-0.5-1.1-0.9-1.4-1.2
			c-0.4-0.5-0.5-1-0.5-1.5c0-0.7,0.3-1.3,0.8-1.8c0.6-0.5,1.2-0.7,2-0.7c0.5,0,1,0.1,1.5,0.4C115.5,90.4,115.9,90.7,116.3,91.2z"/>
		<path class="st1" d="M118.3,86.7h2.1L120,90h1.3l-0.3,1.8h-1.3l-0.9,6.8h-2.1l0.9-6.8h-1l0.2-1.8h1L118.3,86.7z"/>
	</g>
</g>
</svg>
