<?xml version="1.0" encoding="utf-8"?>
<!-- Generator: Adobe Illustrator 24.3.0, SVG Export Plug-In . SVG Version: 6.00 Build 0)  -->
<svg version="1.1" id="Layer_1" xmlns="http://www.w3.org/2000/svg" xmlns:xlink="http://www.w3.org/1999/xlink" x="0px" y="0px"
	 viewBox="0 0 231 180" style="enable-background:new 0 0 231 180;" xml:space="preserve">
<style type="text/css">
	.st0{fill:none;stroke:#000000;stroke-width:3.8078;stroke-linecap:round;stroke-linejoin:round;stroke-miterlimit:10;}
</style>
<g>
	<g>
		<path class="st0" d="M17.5,54.4c-0.5,5.7-0.8,10-1,15.7c12.5-5.2,25.3-9.3,38.3-12.4l-3.1-9c-4.4,1-8.7,2.2-13,3.5
			c-1.7-5.7-3.3-11.3-5-17C23.8,38,14.1,41.4,4.6,45.4C9,49.2,13.3,50.4,17.5,54.4z"/>
		<path class="st0" d="M178,48.6l-3.1,9c13,3.1,25.8,7.3,38.3,12.4c-0.2-5.7-0.5-10-0.9-15.8c4.2-4,8.4-5.2,12.8-8.9
			c-9.5-4-19.3-7.4-29.1-10.3c-1.7,5.7-3.3,11.3-5,17C186.7,50.8,182.4,49.7,178,48.6z"/>
		<path class="st0" d="M53.3,46.2c40.5-9.4,82.6-9.4,123,0c4.4,1,8.8,2.1,13.1,3.4c1.6-5.7,3.2-11.3,4.8-17
			c1.2-4.3,2.5-8.6,3.7-12.9C143.6,4.1,86,4.1,31.7,19.6c1.2,4.3,2.5,8.6,3.7,12.9c1.6,5.7,3.2,11.3,4.8,17
			C44.5,48.3,48.9,47.2,53.3,46.2z"/>
	</g>
	<g>
		<path d="M35.9,94.7l-9.6-6.3h-0.1l4,8.8L25,99.6l-9.3-20.4l5.2-2.4l4.2,9.2h0.1l1.6-11.8l5.5-2.5L30.1,85l11.8,7L35.9,94.7z"/>
		<path d="M56.2,88l-1.9-2.8l-7.5,2.1l-0.2,3.4l-5.9,1.7l2.4-24l4.3-1.2l14.7,19L56.2,88z M47.2,74.5L47.2,74.5l-0.2,8l4.5-1.3
			L47.2,74.5z"/>
		<path d="M84,71c0.6,3.4-0.1,6.4-2,9s-4.5,4.2-7.9,4.8c-3.3,0.5-6.2-0.1-8.8-2c-2.6-1.9-4.2-4.4-4.8-7.7c-0.5-3.3,0.2-6.2,2.1-8.7
			c1.9-2.5,4.5-4,7.8-4.6c2.4-0.4,4.8-0.1,7.2,1c2.4,1.1,4.1,2.8,5.2,5l-6.3,1c-1.4-1.7-3.2-2.4-5.3-2.1c-1.8,0.3-3.1,1.2-4.1,2.6
			c-0.9,1.4-1.2,3-0.9,4.8c0.3,1.9,1.1,3.3,2.4,4.4c1.4,1.1,2.9,1.5,4.8,1.2c1.3-0.2,2.3-0.7,3.2-1.4c0.9-0.8,1.4-1.8,1.5-3
			l-6.6,1.1L70.7,72l13.1-2.1c0,0.2,0.1,0.4,0.1,0.6L84,71z"/>
		<path d="M107.3,78.2c-2.2,2.3-4.9,3.6-8.2,3.8c-3.2,0.2-6-0.7-8.4-2.8c-2.5-2.1-3.8-4.7-4-7.9c-0.1-1.7,0.1-3.3,0.6-4.8
			c0.3-0.8,0.7-1.7,1.3-2.6c2.1-3.2,5.2-4.9,9.2-5.1c3.3-0.2,6.1,0.8,8.5,2.8c2.4,2.1,3.7,4.8,3.9,8C110.4,73,109.4,75.8,107.3,78.2
			z M102.6,65.6c-1.2-1.3-2.8-1.8-4.5-1.7c-1.8,0.1-3.2,0.8-4.3,2.2c-1,1.3-1.5,2.9-1.4,4.7c0.1,1.8,0.8,3.4,2,4.6
			c1.2,1.3,2.8,1.8,4.6,1.7c1.7-0.1,3.1-0.9,4.2-2.3c1-1.3,1.5-2.9,1.4-4.6C104.4,68.3,103.8,66.8,102.6,65.6z"/>
		<path d="M125.9,80c-1.4,1.1-3.3,1.6-5.6,1.6c-2.4,0-4.3-0.7-5.7-1.9c-1.5-1.3-2.3-3.1-2.2-5.4v-0.7l5.7,0.1c0,0.8,0.2,1.5,0.5,2.1
			c0.4,0.7,1,1,1.8,1c1.4,0,2.2-0.7,2.2-2.1c0-0.6-0.2-1.2-0.7-1.6c-0.2-0.2-0.4-0.3-0.8-0.5l-0.4-0.2l-2.4-1.1
			c-0.8-0.4-1.5-0.7-2.1-1.1c-0.7-0.4-1.3-0.9-1.7-1.3c-1.1-1.1-1.6-2.5-1.6-4.1c0-2,0.9-3.6,2.6-4.8c1.5-1.1,3.3-1.7,5.4-1.6
			c1.2,0,2.2,0.3,3.3,0.7c1.1,0.5,2,1.1,2.7,2c0.9,1.2,1.4,2.6,1.4,4.4l-5.7-0.1c-0.2-1.5-0.9-2.2-2-2.2c-1.3,0-2,0.5-2,1.7
			c0,0.4,0.1,0.7,0.2,0.9c0.2,0.4,0.9,0.9,2,1.5l2.3,1.1c0.8,0.4,1.5,0.8,2,1.1c0.7,0.4,1.2,0.9,1.6,1.3c1,1.1,1.5,2.4,1.4,4
			C128.2,77.1,127.5,78.8,125.9,80z"/>
		<path d="M143.5,82.6l0.8-8.9L137,73l-0.8,8.9l-5.7-0.5l2.1-22.3l5.7,0.5l-0.8,8.4l7.3,0.7l0.8-8.4l5.7,0.5l-2.1,22.3L143.5,82.6z"
			/>
		<path d="M152.8,83.9l3.6-22.1l5.6,0.9l-3.6,22.1L152.8,83.9z"/>
		<path d="M179.8,89.7l4.3-16.2v-0.1l-8.8,15.1l-3.7-0.9l-0.4-17.5h-0.1l-4,16.3l-5.1-1.3l5.6-21.7l7.1,1.8l0.6,15.4h0.1l7.9-13.2
			l7.1,1.8L184.9,91L179.8,89.7z"/>
		<path d="M201.1,97.9l0.3-3.4l-7.1-3.2l-2.4,2.5l-5.6-2.5l17.3-16.8l4.1,1.8l-1,24.1L201.1,97.9z M202.9,81.9L202.9,81.9l-5.3,6
			l4.3,1.9L202.9,81.9z"/>
	</g>
	<path d="M138.5,108.2L153.6,93l7.5,7.5l-3.4,3.4l1.7,1.7l10.2-10.2l18.8,18.8l1.7-1.7l-19.7-19.7c-0.5-0.5-1.3-0.5-1.7,0l-5.9,5.9
		l-8.4-8.4c-0.5-0.5-1.3-0.5-1.7,0l-16,16L138.5,108.2z"/>
	<path d="M97.5,106.4l-16-16c-0.5-0.5-1.3-0.5-1.7,0l-8.4,8.4l-5.9-5.9c-0.5-0.5-1.3-0.5-1.7,0L44,112.6l1.7,1.7l18.8-18.8
		l10.2,10.2l1.7-1.7l-3.4-3.4l7.5-7.5l15.1,15.1L97.5,106.4z"/>
	<path d="M91.4,121.1l19.5-19.5l11.3,11.3l1.9-1.9l-3.1-3.1l4.9-4.9l8.6,8.6l1.9-1.9l-9.6-9.6c-0.5-0.5-1.4-0.5-1.9,0L119,106
		l-7.2-7.2c-0.5-0.5-1.4-0.5-1.9,0l-20.5,20.5L91.4,121.1z"/>
	<g>
		<path d="M90.4,129.8c-0.8,0-1.1,0-3.8,0l-0.5,1.6c2.5,0,2.8,0,3.6-0.1c-0.1,0.3-0.4,1.2-0.5,1.6l-0.4,1.4
			c-0.1,0.2-0.3,1.2-0.4,1.4c-0.6-0.1-4.4-0.1-5.2-0.1h-6.5c-0.9,2.3-1.9,4.2-3.2,6l-1.5-0.5c2.5-2.8,3.6-6.4,4.2-8.6
			c0.4-1.4,0.8-2.9,1.2-4.2c0.7,0,1.2,0.1,2.5,0.1h2h1.5c0.2-0.8,0.2-0.8,0.4-1.7l1.9,0.2c0.1,0,0.3,0,0.2,0.3
			c-0.1,0.3-0.4,0.4-0.7,0.5l-0.2,0.8h1.9c1,0,3.9-0.1,4.9-0.1l-0.5,1.6C90.9,129.8,90.6,129.8,90.4,129.8z M80.3,138.3H79l-0.5,1.7
			c0.7-0.1,2.5-0.4,3.1-0.6l-0.4,1.3c-1.3,0.4-5.4,1.2-5.8,1.2c-0.2,0.3-0.4,0.4-0.5,0.4s-0.1-0.1-0.1-0.4l0.2-1.5
			c1.2-0.1,1.7-0.2,2.1-0.3l1-3.3c0.1-0.3,0.1-0.5,0.3-1.1L80,136c0.3,0.1,0.5,0.1,0.4,0.3c-0.1,0.3-0.6,0.4-0.7,0.4l-0.1,0.2h1.2
			c0.7,0,1,0,1.7-0.1l-0.4,1.4C81.9,138.3,80.3,138.3,80.3,138.3z M80,132.7h-2.3c-0.1,0.3-0.5,1.4-0.5,1.6h2.4L80,132.7z
			 M80.8,129.7h-2.3l-0.5,1.6h2.3L80.8,129.7z M84.1,132.7h-2.5l-0.5,1.6h2.5L84.1,132.7z M85.7,141.8h-2.3c-1.5,0-1.8-0.3-1.3-1.7
			L83,137c0.1-0.5,0.2-0.7,0.3-1.2l1.6,0.3c0.2,0,0.4,0.1,0.3,0.3s-0.3,0.3-0.6,0.3l-0.2,0.6c1.5-0.3,2.8-0.9,3.5-1.4l0.8,1.2
			c0.1,0.2,0.1,0.2,0.1,0.3s-0.2,0.3-0.4,0.3c-0.1,0-0.2,0-0.5-0.1c-1.3,0.5-2.6,0.9-3.9,1l-0.3,1c-0.2,0.6-0.1,0.6,0.4,0.6h2
			c0.5,0,0.8-0.4,1.7-2l1.1,1.1C87.4,141.8,86.6,141.8,85.7,141.8z M84.9,129.7h-2.5l-0.5,1.6h2.5L84.9,129.7z M87.6,132.7h-1.9
			l-0.5,1.6h1.9L87.6,132.7z"/>
		<path d="M113.2,136.1c-0.9,2.3-2.3,3.7-2.7,4.2c-1.3,1.2-2.6,1.6-4.3,1.9l-0.7-1.5c1,0,2.3-0.1,3.5-0.9c1.3-0.8,2.3-2.3,2.8-3.8
			c0.1-0.4,0.2-0.6,0.2-0.9l1.8,0.3c0.3,0.1,0.2,0.2,0.2,0.3C113.8,135.9,113.4,136,113.2,136.1z M112.7,127.6
			c-0.1,0.3-0.4,1.2-0.6,1.8l-0.9,2.9c-0.4,1.3-0.4,1.5-0.7,2.7h-1.8c0.3-0.6,0.8-2.1,1-2.7l0.9-3.1c0.5-1.6,0.6-2,0.7-2.7l1.8,0.2
			c0.3,0,0.4,0.1,0.4,0.3C113.4,127.3,112.9,127.5,112.7,127.6z M122.1,129.5l-0.5,1.7c-0.1,0.5-0.7,2.7-0.9,3.1
			c-0.6,0-2.2-0.1-3.4-0.1h-1.1c-2.7,0-2.9,0-3.5,0.1c0.2-0.5,0.7-1.9,0.8-2.4l0.8-2.5c0.1-0.3,0.4-1.5,0.6-2.4
			c0.8,0.1,1.8,0.1,2.6,0.1h3.1c0.8,0,1.6,0,2.4-0.1C122.8,127.6,122.4,128.8,122.1,129.5z M117.6,141.8h-2c-0.9,0-1.8,0-2.1-0.7
			c-0.1-0.3,0-0.6,0.2-1.5l0.6-1.9c0.2-0.8,0.6-2,0.8-2.8l1.8,0.3c0.3,0.1,0.3,0.2,0.3,0.3c-0.1,0.3-0.5,0.4-0.7,0.5
			c-0.1,0.3-0.6,1.8-0.7,2.2l-0.4,1.3c-0.3,0.9-0.3,1,0.7,1h1.7c0.8,0,1.2-0.5,1.4-0.7c0.2-0.3,0.6-1,0.9-1.6l1.2,1.2
			C119.7,141.7,118.8,141.8,117.6,141.8z M120,131.3h-4.6l-0.5,1.8h4.6L120,131.3z M120.9,128.4h-4.6l-0.5,1.7h4.6L120.9,128.4z"/>
		<path d="M150.1,135.2h-6.6l-0.3,0.9h6.2c2.1,0,3.8-0.1,4.8-0.2c-0.2,0.6-1.1,3.2-1.9,4.5c-0.3,0.4-0.9,1.3-2.1,1.6
			c-0.5,0.1-0.9,0.2-1.4,0.2c-0.2,0-0.4,0-0.5,0l-0.1-1.7c0.2,0,0.5,0.1,1.1,0.1c1,0,1.2-0.2,1.4-0.3c0.4-0.4,1-1.7,1.5-3h-7.3
			l-0.6,2.1h2.4c0.1-0.4,0.2-0.7,0.5-1.6l1.6,0.1c0.2,0,0.4,0,0.3,0.2c0,0.1-0.1,0.2-0.5,0.3c-0.3,0.9-0.4,1.3-0.6,2.2
			c-1.7-0.1-2.2-0.1-3.2-0.1h-4.6c-0.1,0.4-0.2,0.5-0.3,1h-1.6c0.2-0.6,0.4-1.2,0.7-1.9c0.2-0.7,0.3-1.1,0.5-1.8l1.6,0.1
			c0.2,0,0.4,0,0.3,0.2c0,0.1-0.2,0.2-0.5,0.4c-0.1,0.2-0.3,0.8-0.3,1h2.4l0.6-2.1c-0.4,0-0.5,0-0.6,0c-0.2,0-1.3,0-1.6,0.1
			c0.2-0.5,0.9-2.3,1-2.8l0.8-2.8c0.5-1.7,0.7-2.6,1-3.7c1,0.1,2.6,0.1,3.3,0.1c0.3-0.5,0.9-1.4,1-1.6l1.5,0.3
			c0.1,0,0.4,0.1,0.3,0.3c-0.1,0.2-0.5,0.3-0.7,0.3c-0.2,0.3-0.3,0.4-0.5,0.7h0.9c0.5,0,3.1,0,4.3-0.1c-0.3,0.7-0.4,1.1-0.7,2.2
			l-0.4,1.3c-0.2,0.6-0.3,1-0.5,1.9c-0.6,0-3.1-0.1-3.7-0.1h-4.9l-0.2,0.8h6.5c1,0,3.3-0.1,5-0.2l-0.4,1.4
			C153.7,135.2,151.5,135.2,150.1,135.2z M151.7,131.2h-7l-0.3,0.9h7L151.7,131.2z M152.3,129.3h-7l-0.3,0.9h7L152.3,129.3z"/>
	</g>
	<g>
		<path d="M20.3,127.4l-6.1,5.3l-0.6-0.7l6.1-5.3l-1.3-1.5l0.6-0.5l3.2,3.8l-0.6,0.5L20.3,127.4z"/>
		<path d="M23.2,135.8c-0.7,0-1.3-0.2-1.9-0.7l-0.4,4.1l-0.8-0.8l0.5-5l0.7,0.6c0.3,0.3,0.6,0.4,0.8,0.5c0.9,0.4,1.7,0.3,2.4-0.4
			c0.5-0.6,0.7-1.2,0.4-1.9c-0.1-0.3-0.2-0.5-0.4-0.8c-0.1-0.2-0.4-0.4-0.6-0.6l-1.1-1l-5.4,6l-0.7-0.6l6-6.6l1.7,1.5
			c0.1,0.1,0.3,0.3,0.4,0.4c0.1,0.1,0.3,0.3,0.4,0.4c0.3,0.3,0.5,0.6,0.6,0.9c0.4,1.1,0.3,2.1-0.5,2.9
			C24.6,135.5,23.9,135.8,23.2,135.8z"/>
		<path d="M28.1,144.6l0.7-3.2l-3.4-2.4l-2.8,1.7l-0.8-0.5l8.2-5.1l0.8,0.6l-2,9.5L28.1,144.6z M30,136.2l-3.8,2.3l2.8,2L30,136.2z
			 M32.4,134.7c0,0-0.1,0-0.2,0.1l-0.1,0l-0.3,0.1c-0.1,0-0.1,0-0.2,0.1c-0.1,0-0.2,0.2-0.4,0.3l-0.6-0.4l0.1-0.1
			c0.1-0.2,0.3-0.3,0.5-0.4c0.1,0,0.1-0.1,0.3-0.1c0,0,0.1,0,0.2,0l0.2,0c0.1,0,0.1,0,0.2-0.1c0.1,0,0.2-0.1,0.2-0.2
			c0.1-0.1,0.1-0.3,0.1-0.4c0-0.2-0.1-0.3-0.2-0.3c-0.1-0.1-0.3-0.1-0.5,0c-0.1,0-0.1,0.1-0.2,0.1c0,0-0.1,0.1-0.2,0.3l-0.6-0.4
			l0.1-0.2c0.2-0.3,0.5-0.4,0.8-0.5c0.3,0,0.6,0,0.9,0.2c0.3,0.2,0.5,0.5,0.5,0.8c0.1,0.3,0,0.6-0.2,0.9
			C32.8,134.5,32.6,134.6,32.4,134.7z"/>
		<path d="M30.2,145.8l4.6-7.6l0.8,0.5l-4.6,7.6L30.2,145.8z"/>
		<path d="M41.4,151.7l-1.3-9.3l0,0l-3.4,7l-0.8-0.4l3.9-8l1.1,0.5l1.2,8.8l0,0l3.2-6.6l0.8,0.4l-3.9,8L41.4,151.7z"/>
		<path d="M54.1,152.5c-0.5,1.1-1.4,1.8-2.5,2.3c-1.1,0.4-2.3,0.4-3.4,0c-1.2-0.5-2.1-1.3-2.6-2.4c-0.6-1.2-0.6-2.4-0.2-3.6
			c0.5-1.2,1.3-2,2.5-2.5c1.2-0.5,2.4-0.5,3.6,0c1.4,0.5,2.3,1.5,2.8,2.8c0.1,0.4,0.2,0.7,0.2,1l-1-0.4c-0.1-0.6-0.4-1.2-0.8-1.7
			c-0.4-0.5-0.9-0.8-1.5-1.1c-1-0.4-2-0.4-2.9,0c-1,0.4-1.7,1.1-2,2.1c-0.4,1-0.3,2,0.1,2.9c0.5,1,1.2,1.6,2.2,2
			c0.7,0.3,1.5,0.3,2.3,0.1c0.8-0.2,1.5-0.6,2-1.3l-4.6-1.8l0.3-0.7L54.1,152.5z"/>
		<path d="M59.6,158.4l1.2-4l-4.4-1.4l-1.2,4l-0.9-0.3l2.6-8.5l0.9,0.3l-1.2,3.7l4.4,1.4l1.2-3.7l0.8,0.3l-2.6,8.5L59.6,158.4z"/>
		<path d="M62.3,159.2l2.3-8.6l0.9,0.2l-2.3,8.6L62.3,159.2z"/>
		<path d="M65,159.9l2.1-8.6l4.7,1.2l-0.2,0.8l-3.9-0.9l-0.8,3.1l3.7,0.9l-0.2,0.8l-3.7-0.9l-0.8,3.2l3.9,0.9l-0.2,0.8L65,159.9z
			 M66.4,162.6l0.4-1.5l0.9,0.2l-0.4,1.5L66.4,162.6z M70.6,151.4l-0.8-1.1l-1.2,0.6l-1.1-0.3l2-1l0.8,0.2l1.3,1.9L70.6,151.4z"/>
		<path d="M79.7,163.1l1.5-7.8l0,0l-4.8,7.1l-0.7-0.1L74,154l0,0l-1.5,7.8l-0.9-0.2l1.7-8.7l1.3,0.3l1.7,8l4.6-6.8l1.3,0.3l-1.7,8.7
			L79.7,163.1z"/>
		<path d="M91,164.7l-2.5-4.2l-1.3,1.3l-0.3,2.4l-0.9-0.1l1.1-8.8l0.9,0.1l-0.6,5.1l0,0l4.7-4.6l1.1,0.1l-4,3.9l2.9,4.9L91,164.7z"
			/>
		<path d="M99.3,165.5l-1-3.1l-4.1-0.4l-1.6,2.9l-0.9-0.1l4.6-8.5l1,0.1l3,9.2L99.3,165.5z M96.7,157.3l-2.1,3.9l3.4,0.3L96.7,157.3
			z"/>
		<path d="M110.2,161.9c-0.1,1.2-0.7,2.2-1.6,3c-0.9,0.8-2,1.1-3.2,1.1c-1.3-0.1-2.4-0.5-3.3-1.5c-0.9-0.9-1.3-2.1-1.3-3.3
			c0.1-1.3,0.6-2.3,1.6-3.2c1-0.8,2.1-1.2,3.4-1.2c1.5,0.1,2.6,0.7,3.6,1.8c0.2,0.3,0.4,0.6,0.5,0.9l-1,0c-0.3-0.5-0.7-1-1.3-1.3
			c-0.6-0.3-1.2-0.5-1.8-0.5c-1.1,0-2,0.3-2.8,1c-0.8,0.7-1.2,1.6-1.3,2.6c0,1.1,0.3,2,1,2.7c0.7,0.8,1.6,1.2,2.7,1.2
			c0.8,0,1.6-0.2,2.3-0.6c0.7-0.5,1.2-1.1,1.4-1.8l-5-0.2l0-0.8L110.2,161.9z"/>
		<path d="M119.1,164.8c-0.9,0.9-2,1.4-3.3,1.4c-1.3,0-2.4-0.4-3.3-1.3c-0.9-0.9-1.4-2-1.4-3.2c0-1.3,0.4-2.4,1.3-3.3
			c0.9-0.9,2-1.4,3.3-1.4c1.3,0,2.4,0.4,3.3,1.3c0.9,0.9,1.4,2,1.4,3.2C120.5,162.8,120,163.9,119.1,164.8z M118.4,158.9
			c-0.8-0.7-1.7-1.1-2.7-1.1c-1.1,0-2,0.4-2.7,1.2c-0.7,0.8-1.1,1.7-1.1,2.7c0,1,0.4,1.9,1.2,2.6c0.8,0.7,1.6,1.1,2.7,1.1
			c1,0,1.9-0.4,2.7-1.1c0.7-0.7,1.1-1.6,1.1-2.7C119.6,160.5,119.2,159.6,118.4,158.9z"/>
		<path d="M125.8,165.1c-0.5,0.5-1.1,0.8-1.9,0.8c-0.8,0-1.5-0.2-2-0.6c-0.5-0.5-0.8-1.1-0.9-1.9l0.9,0c0.1,1.2,0.7,1.8,1.9,1.8
			c0.5,0,0.9-0.2,1.2-0.6c0.3-0.4,0.5-0.8,0.5-1.3c0-0.5-0.2-1-0.7-1.3c-0.2-0.1-0.4-0.2-0.6-0.3c-0.2-0.1-0.4-0.1-0.7-0.2
			c-0.4-0.1-0.7-0.2-0.9-0.3c-0.3-0.1-0.6-0.2-0.7-0.4c-0.5-0.4-0.7-0.9-0.7-1.6c0-0.7,0.2-1.3,0.7-1.7c0.5-0.5,1-0.7,1.7-0.7
			c0.7,0,1.3,0.2,1.8,0.6c0.5,0.4,0.8,1,0.8,1.7l-0.9,0c0-0.4-0.2-0.8-0.5-1.1c-0.3-0.3-0.7-0.5-1.1-0.4c-0.4,0-0.8,0.2-1.1,0.5
			c-0.3,0.3-0.4,0.7-0.4,1.1c0,0.5,0.3,0.9,0.8,1.1c0.2,0.1,0.4,0.2,0.7,0.3l0.7,0.2c0.7,0.2,1.2,0.5,1.6,0.8c0.4,0.4,0.6,1,0.7,1.6
			C126.6,164,126.3,164.6,125.8,165.1z"/>
		<path d="M133.2,165.2l-0.3-4.2l-4.6,0.3l0.3,4.2l-0.9,0.1l-0.7-8.9l0.9-0.1l0.3,3.9l4.6-0.3l-0.3-3.9l0.9-0.1l0.7,8.9L133.2,165.2
			z"/>
		<path d="M135.9,165l-0.9-8.8l0.9-0.1l0.9,8.8L135.9,165z"/>
		<path d="M146.8,163.7l-1.1-7.8l0,0l-2.2,8.3l-0.7,0.1l-4.3-7.4l0,0l1.1,7.8l-0.9,0.1l-1.2-8.8l1.4-0.2l4.2,7.1l2.2-7.9l1.4-0.2
			l1.2,8.8L146.8,163.7z"/>
		<path d="M156.4,161.9l-1.8-2.7l-4.1,0.8l-0.7,3.2l-0.9,0.2l2.1-9.4l1-0.2l5.4,8L156.4,161.9z M151.7,154.8l-1,4.3l3.4-0.6
			L151.7,154.8z"/>
		<path d="M162,152.3l2,7.8l-0.9,0.2l-2-7.8l-2,0.5l-0.2-0.8l4.8-1.2l0.2,0.8L162,152.3z"/>
		<path d="M170.9,153.9c-0.3,0.6-0.9,1.1-1.6,1.3l3.3,2.5l-1.1,0.3l-4-3l0.9-0.3c0.4-0.1,0.7-0.3,0.9-0.4c0.9-0.6,1.1-1.3,0.9-2.2
			c-0.2-0.8-0.7-1.2-1.4-1.4c-0.3-0.1-0.6-0.1-0.9,0c-0.2,0-0.5,0.1-0.9,0.2l-1.5,0.4l2.3,7.7l-0.9,0.2l-2.5-8.5l2.2-0.6
			c0.2-0.1,0.4-0.1,0.5-0.1c0.2,0,0.4-0.1,0.6-0.1c0.4-0.1,0.8-0.1,1.1,0c1.2,0.2,1.9,0.9,2.2,2
			C171.3,152.6,171.2,153.3,170.9,153.9z"/>
		<path d="M177.4,147.8l1.5,4.3c0.1,0.3,0.2,0.6,0.2,0.9c0.1,0.3,0.1,0.7,0,0.9c-0.1,1.2-0.8,2-2,2.5s-2.2,0.2-3.1-0.7
			c-0.2-0.2-0.4-0.5-0.5-0.8c-0.1-0.3-0.3-0.6-0.4-0.9l-1.8-5.2l0.8-0.3l1.8,5.2c0.1,0.3,0.2,0.5,0.3,0.8c0.2,0.3,0.3,0.5,0.5,0.7
			c0.6,0.6,1.3,0.7,2.1,0.4s1.2-0.8,1.4-1.6c0-0.2,0-0.5,0-0.8c0-0.3-0.1-0.5-0.2-0.8l-1.8-5.2l0.8-0.3l0.1,0.2
			c0.1-0.2,0.1-0.3,0.1-0.5l-0.4,0.1l-0.3-1l1-0.4l0.4,1c0,0.2,0,0.4,0,0.5c0,0.1-0.1,0.3-0.1,0.4c-0.1,0.1-0.1,0.2-0.2,0.3
			C177.6,147.6,177.5,147.7,177.4,147.8z M177.4,158.5l-0.5-1.4l0.8-0.3l0.5,1.4L177.4,158.5z"/>
		<path d="M188.8,149c-0.2,1.9-1.1,3.2-2.8,3.9c-1.2,0.5-2.4,0.5-3.5,0.1c-1.2-0.5-2-1.3-2.5-2.5c-0.5-1.2-0.5-2.4,0-3.5
			c0.5-1.2,1.3-2,2.5-2.5c1.3-0.6,2.6-0.5,3.8,0.1c0.4,0.2,0.6,0.3,0.8,0.6l-0.9,0.4c-1.1-0.7-2.3-0.8-3.5-0.3
			c-0.9,0.4-1.6,1.1-2,2.1c-0.4,1-0.4,1.9,0,2.9c0.4,0.9,1.1,1.6,2.1,2c1,0.4,1.9,0.4,2.9,0c0.6-0.2,1-0.6,1.4-1.1
			c0.4-0.5,0.6-1,0.8-1.7L188.8,149z"/>
		<path d="M192.3,140.7l3.9,7.1l-0.8,0.4l-3.9-7.1l-1.8,1l-0.4-0.7l4.3-2.4l0.4,0.7L192.3,140.7z"/>
		<path d="M202.4,140c0.2,0.3,0.3,0.6,0.5,0.8c0.1,0.3,0.2,0.6,0.3,0.9c0.2,1.2-0.3,2.2-1.4,2.9s-2.1,0.7-3.2,0.1
			c-0.2-0.1-0.5-0.4-0.7-0.6c-0.2-0.2-0.4-0.5-0.6-0.8l-3-4.6l0.7-0.5l3,4.6c0.2,0.2,0.3,0.5,0.5,0.7c0.2,0.2,0.4,0.4,0.6,0.5
			c0.7,0.4,1.4,0.4,2.1-0.1c0.7-0.4,1-1.1,0.9-1.9c0-0.2-0.1-0.5-0.2-0.8c-0.1-0.2-0.2-0.5-0.4-0.7l-3-4.6l0.7-0.5L202.4,140z"/>
		<path d="M206.6,137.2l1.9,2.3l-0.7,0.6l-1.9-2.3l-6.1-2.7l0.8-0.6l5.1,2.3l-1.1-5.5l0.8-0.6L206.6,137.2z"/>
		<path d="M207.5,127.4l-1.3,0.1l-0.1,1.4l-0.8,0.8l0.1-2.3l0.6-0.6l2.3-0.2L207.5,127.4z M211.9,136.6l-6.4-6.2l3.4-3.5l0.6,0.6
			l-2.8,2.8l2.3,2.2l2.7-2.7l0.6,0.6l-2.7,2.7l2.3,2.3l2.8-2.8l0.6,0.6L211.9,136.6z M207.2,126.4l-0.8-0.2l0.7-2.6l0.8,0.2
			L207.2,126.4z"/>
		<path d="M220.5,126.1l-9.4,0l0,0l6.5,4.4l-0.5,0.7l-7.3-5l0.7-1l8.9,0.1l0,0l-6.1-4.1l0.5-0.7l7.3,5L220.5,126.1z"/>
	</g>
	<g>
		<g>
			<path d="M56.5,32.5c-0.9,1.2-2,2-3.5,2.3c-1.5,0.3-2.8,0.1-4.1-0.6c-1.3-0.8-2.2-1.9-2.5-3.3c-0.4-1.5-0.1-2.8,0.7-4.1
				c0.8-1.3,2.1-2.1,3.6-2.4c1.5-0.3,3-0.1,4.3,0.7c1.3,0.8,2.1,1.9,2.4,3.4C57.7,29.9,57.4,31.2,56.5,32.5z M54.4,25.9
				c-1.1-0.7-2.2-0.9-3.5-0.6c-1.3,0.3-2.2,1-2.9,2c-0.7,1.1-0.9,2.2-0.6,3.4c0.3,1.2,1,2.1,2,2.7c1.1,0.6,2.2,0.8,3.4,0.6
				c1.2-0.3,2.1-0.9,2.8-1.9c0.7-1,0.9-2.1,0.7-3.3C56.1,27.5,55.4,26.5,54.4,25.9z"/>
			<path d="M67.2,31.9c-3.1-3.2-4.6-4.8-7.8-7.9c0,0,0,0,0,0c0.7,3.6,1,5.4,1.7,9c-0.4,0.1-0.6,0.1-1,0.2c-0.8-4.1-1.2-6.1-2-10.2
				c0.6-0.1,0.9-0.2,1.4-0.3c3,2.9,4.5,4.4,7.4,7.4c0,0,0,0,0,0c-0.6-3.4-0.8-5.1-1.4-8.5c0.4-0.1,0.6-0.1,1.1-0.2
				c0.7,4.1,1,6.1,1.7,10.2C67.8,31.8,67.6,31.8,67.2,31.9z"/>
			<path d="M70.4,31.4c-0.6-4.1-1-6.1-1.6-10.2c0.4-0.1,0.6-0.1,1.1-0.2c0.6,3.7,0.8,5.6,1.4,9.3c1.7-0.3,2.6-0.4,4.3-0.6
				c0.1,0.4,0.1,0.6,0.1,0.9C73.6,30.9,72.6,31.1,70.4,31.4z"/>
			<path d="M76.8,30.5c-0.5-4.1-0.8-6.2-1.4-10.3c0.4-0.1,0.6-0.1,1.1-0.1c0.5,4.1,0.8,6.2,1.3,10.3C77.4,30.4,77.2,30.4,76.8,30.5z
				"/>
			<path d="M87.2,29.3c-2.8-3.4-4.3-5.1-7.2-8.4c0,0,0,0,0,0c0.4,3.6,0.6,5.4,1.1,9.1c-0.4,0-0.6,0.1-1,0.1
				c-0.5-4.1-0.7-6.2-1.2-10.3c0.6-0.1,0.9-0.1,1.5-0.2c2.8,3.1,4.2,4.7,6.8,7.9c0,0,0,0,0,0c-0.3-3.4-0.5-5.1-0.8-8.6
				c0.4,0,0.6-0.1,1.1-0.1c0.4,4.1,0.6,6.2,0.9,10.3C87.8,29.2,87.6,29.3,87.2,29.3z"/>
			<path d="M90.3,29c-0.3-4.1-0.5-6.2-0.9-10.3c2.4-0.2,3.5-0.3,5.9-0.4c0,0.4,0,0.6,0.1,0.9c-1.9,0.1-2.9,0.2-4.8,0.3
				c0.1,1.5,0.2,2.2,0.3,3.7c1.8-0.1,2.8-0.2,4.6-0.3c0,0.4,0,0.6,0.1,0.9c-1.8,0.1-2.7,0.2-4.6,0.3c0.1,1.5,0.2,2.3,0.3,3.8
				c1.9-0.1,2.8-0.2,4.7-0.3c0,0.4,0,0.6,0.1,0.9C93.7,28.8,92.6,28.8,90.3,29z"/>
			<path d="M101.7,28.3c-0.2-4.1-0.3-6.2-0.4-10.4c2.4-0.1,3.5-0.1,5.9-0.2c0,0.4,0,0.6,0,0.9c-1.9,0-2.9,0.1-4.8,0.1
				c0.1,1.5,0.1,2.2,0.1,3.7c1.8-0.1,2.8-0.1,4.6-0.1c0,0.4,0,0.6,0,0.9c-1.8,0-2.8,0.1-4.6,0.1c0.1,1.5,0.1,2.3,0.1,3.8
				c1.9-0.1,2.8-0.1,4.7-0.1c0,0.4,0,0.6,0,0.9C105.2,28.2,104,28.2,101.7,28.3z"/>
			<path d="M115.6,28.1c-1.2-1.8-1.8-2.7-3-4.4c-1.2,1.8-1.8,2.7-3,4.5c-0.5,0-0.7,0-1.2,0c1.4-2.1,2.1-3.2,3.5-5.3
				c-1.4-2-2.1-3-3.5-5c0.5,0,0.8,0,1.3,0c1.2,1.6,1.8,2.5,2.9,4.1c1.1-1.7,1.7-2.5,2.8-4.1c0.5,0,0.8,0,1.3,0c-1.4,2-2.1,3-3.5,5.1
				c1.5,2.1,2.2,3.2,3.6,5.3C116.3,28.1,116.1,28.1,115.6,28.1z"/>
			<path d="M123.7,23.4c-0.4,0.2-0.8,0.4-1.3,0.5c-0.2,0-0.5,0.1-0.7,0.1c-0.2,0-0.4,0-0.7,0c-0.8,0-1.1,0-1.9,0
				c0,1.7,0,2.5-0.1,4.2c-0.4,0-0.6,0-1,0c0.1-4.1,0.1-6.2,0.1-10.4c1.2,0,1.8,0,3,0.1c0.3,0,0.5,0,0.7,0c0.3,0,0.5,0.1,0.7,0.1
				c0.5,0.1,1,0.3,1.3,0.5c0.9,0.6,1.3,1.5,1.2,2.5C125.1,22.1,124.6,22.9,123.7,23.4z M122.9,19c-0.3-0.1-0.6-0.2-0.9-0.3
				c-0.2,0-0.3,0-0.5,0c-0.9,0-1.4,0-2.3-0.1c0,1.7,0,2.6-0.1,4.3c0.9,0,1.4,0,2.3,0.1c0.2,0,0.3,0,0.5,0c0.3,0,0.6-0.1,0.9-0.2
				c0.8-0.4,1.3-1,1.3-1.9C124.1,20.1,123.7,19.4,122.9,19z"/>
			<path d="M126.2,28.3c0.2-4.1,0.3-6.2,0.4-10.4c2.4,0.1,3.5,0.2,5.9,0.3c0,0.4,0,0.6-0.1,0.9c-1.9-0.1-2.9-0.2-4.8-0.3
				c-0.1,1.5-0.1,2.2-0.2,3.7c1.8,0.1,2.8,0.1,4.6,0.3c0,0.4,0,0.6-0.1,0.9c-1.8-0.1-2.7-0.2-4.6-0.3c-0.1,1.5-0.1,2.3-0.2,3.8
				c1.9,0.1,2.8,0.1,4.7,0.3c0,0.4,0,0.6-0.1,0.9C129.7,28.5,128.5,28.4,126.2,28.3z"/>
			<path d="M140.4,24.4c-0.6,0.5-1.4,0.8-2.3,0.8c1.1,1.6,1.6,2.5,2.6,4.1c-0.5,0-0.8-0.1-1.3-0.1c-1.2-2-1.9-3-3.2-5
				c0.5,0,0.7,0,1.1,0.1c0.5,0,0.9,0,1.1-0.1c1.2-0.2,1.8-0.9,1.9-2c0.1-0.9-0.2-1.6-1-2.1c-0.3-0.2-0.6-0.3-1-0.4
				c-0.3-0.1-0.6-0.1-1.1-0.1c-0.7-0.1-1.1-0.1-1.9-0.1c-0.3,3.8-0.4,5.6-0.7,9.4c-0.4,0-0.6,0-1-0.1c0.3-4.1,0.4-6.2,0.7-10.3
				c1.1,0.1,1.6,0.1,2.7,0.2c0.2,0,0.5,0,0.7,0.1c0.2,0,0.5,0.1,0.7,0.1c0.5,0.1,1,0.3,1.3,0.4c1.2,0.7,1.8,1.7,1.6,3.1
				C141.4,23.2,141,23.9,140.4,24.4z"/>
			<path d="M142.4,29.5c0.4-4.1,0.6-6.2,1-10.3c0.4,0,0.6,0.1,1.1,0.1c-0.4,4.1-0.6,6.2-1.1,10.3C143,29.5,142.8,29.5,142.4,29.5z"
				/>
			<path d="M145.5,29.8c0.5-4.1,0.7-6.2,1.2-10.3c2.4,0.3,3.5,0.4,5.9,0.7c0,0.4-0.1,0.6-0.1,0.9c-1.9-0.3-2.9-0.4-4.8-0.6
				c-0.2,1.5-0.3,2.2-0.4,3.7c1.8,0.2,2.7,0.3,4.6,0.6c0,0.4-0.1,0.6-0.1,0.9c-1.8-0.2-2.7-0.4-4.6-0.6c-0.2,1.5-0.3,2.3-0.4,3.8
				c1.9,0.2,2.8,0.3,4.7,0.6c0,0.4-0.1,0.6-0.1,0.9C148.9,30.2,147.8,30.1,145.5,29.8z"/>
			<path d="M160.3,31.9c-1.9-4-2.8-6-4.8-10c0,0,0,0,0,0c-0.5,3.6-0.8,5.4-1.3,9c-0.4-0.1-0.6-0.1-1-0.1c0.6-4.1,0.9-6.2,1.4-10.3
				c0.6,0.1,0.9,0.1,1.5,0.2c1.9,3.8,2.8,5.6,4.6,9.4c0,0,0,0,0,0c0.6-3.4,0.8-5.1,1.4-8.5c0.4,0.1,0.6,0.1,1.1,0.2
				c-0.7,4.1-1,6.1-1.7,10.2C160.9,32,160.7,31.9,160.3,31.9z"/>
			<path d="M173.7,31.6c-1.5,1.7-3.2,2.3-5.3,1.9c-1.5-0.3-2.7-1-3.5-2.2c-0.9-1.2-1.2-2.6-0.9-4c0.3-1.5,1-2.6,2.3-3.5
				c1.3-0.8,2.7-1.1,4.2-0.8c1.7,0.3,3,1.2,3.8,2.7c0.2,0.4,0.4,0.8,0.5,1.1c-0.5-0.1-0.7-0.2-1.2-0.2c-0.6-1.4-1.7-2.3-3.3-2.6
				c-1.2-0.2-2.3,0-3.4,0.7c-1,0.7-1.6,1.6-1.9,2.8c-0.2,1.1,0.1,2.2,0.8,3.3c0.7,1,1.7,1.7,2.8,1.9c0.7,0.1,1.4,0.1,2.1-0.1
				c0.7-0.2,1.3-0.6,1.9-1.1C173,31.5,173.2,31.5,173.7,31.6z"/>
			<path d="M174.6,34.6c0.9-4,1.3-6.1,2.2-10.1c2.3,0.5,3.5,0.8,5.8,1.3c-0.1,0.4-0.1,0.6-0.2,0.9c-1.9-0.5-2.8-0.7-4.7-1.1
				c-0.3,1.5-0.5,2.2-0.8,3.6c1.8,0.4,2.7,0.6,4.5,1c-0.1,0.4-0.1,0.6-0.2,0.9c-1.8-0.4-2.7-0.6-4.5-1c-0.3,1.5-0.5,2.2-0.8,3.7
				c1.8,0.4,2.8,0.6,4.6,1.1c-0.1,0.4-0.1,0.5-0.2,0.9C178,35.4,176.9,35.1,174.6,34.6z"/>
		</g>
	</g>
</g>
</svg>
